Westworld.1973.DivX-NvadR 
http://www.imdb.com/title/tt0070909/
 
Havoc ensues as the controlled environment of an amusement park goes awry and the exhibits starts killing off the park’s visitors.

Jurassic Park? Close, but rather its ideological predecessor, Westworld, an early-1970s sci-fi actioner also written by Michael Crichton. (Crichton also directed, by the way.)

Inspired by the then revolutionary Pirates of the Caribbean exhibition at Disneyland, Westworld is about an adult future amusement park in which visitors can (at $1 000 a day!) indulge themselves in one of three environments, namely "Romanworld", "Medievalworld" and of course "Westworld" itself.

Think the immersive world of the holodeck in those Star Trek - Next Generation episodes, but populated with automated intelligent robots instead of holograms and you get the idea. Inspired more by Hollywood fantasy than reality, visitors to these parks can indulge in their every whimsy – which includes having gunfights with the robots, sleeping with robotic whores at the local brothel, etc. Obviously the robots are programmed to obey all the visitors’ demands and, of course, lose at the gunfights. Then things start going wrong when the robots refuse to obey commands and stop losing at those gunfights . . .

"The original unstoppable killing machine, more than a decade before Terminator!"

The plot is riddled with more holes than your average chunk of Swiss cheese. For starters, it is never really explained why "Westworld" would suddenly stop functioning properly altogether.

The lab-coated scientists overseeing events (from a room that in the 1970s represented high-tech computing but is ludicrously outdated today – just as I suspect our current representations of future technology would be one day) doesn’t know either. It just happens – maybe the robots just grew tired of being targets, punch-bags and receptacles for human semen. Who knows?

At least Jurassic Park had an overweight saboteur and "chaos theory." Despite serving the needs of the plot, this complete malfunction just ties in with Crichton’s own technophobic prejudices in his other movies – like the rampant robots in Runaway, for example.

There are other questions left unanswered: how come the manufacturers of the robots couldn’t get the robots’ hands right but your "basic pleasure model" (as they said of one replicant in Blade Runner) has the right, er, equipment for intercourse with human visitors to the park? How can the robots discern any objects whatsoever with such a pixellated eye sight? And so forth . . .

But despite all this, Westworld is tightly directed by Crichton and is bit of an amusement park ride by itself. Also, getting Yul Brynner to reprise his Magnificent Seven persona (as one of the cowboy robots who has to lose at all those gunfights) was an excellent touch. Here is the original unstoppable machine more than a decade before the first Terminator movie hit the screens. Cool retro fun . . .

--------------- SCREENSHOTS ----------------
 
http://www.postimg.com/33000/photo-32839.jpg
 
http://www.postimg.com/33000/photo-32840.jpg
 
http://www.postimg.com/33000/photo-32842.jpg
 
http://www.postimg.com/33000/photo-32843.jpg
 
http://www.postimg.com/33000/photo-32844.jpg
 
http://www.postimg.com/33000/photo-32845.jpg 

--------------------------------------------

General
      
      Format : AVI
      Format/Info : Audio Video Interleave
      File size : 700 MiB
      Duration : 1h 28mn
      Overall bit rate : 1105 Kbps
      Movie name : Westworld.1973.DivX-NvadR
      Writing application : VirtualDub-MPEG2 build 24586/release
   
Video 
      
      Format : MPEG-4 Visual
      Format settings, BVOP : Yes
      Format settings, QPel : No
      Format settings, GMC : No warppoints
      Format settings, Matrix : Default (H.263)
      Muxing mode : Packed bitstream
      Codec ID : DX50
      Codec ID/Hint : DivX 5
      Duration : 1h 28mn
      Bit rate : 984 Kbps
      Width : 720 pixels
      Height : 304 pixels
      Display aspect ratio : 2.35:1
      Frame rate : 23.976 fps
      Resolution : 24 bits
      Colorimetry : 4:2:0
      Scan type : Progressive
      Bits/(Pixel*Frame) : 0.187
      Stream size : 623 MiB (89%)
      Writing library : DivX 6.8.4
   
Audio 
      
      Format : AC-3
      Format/Info : Audio Coding 3
      Codec ID : 2000
      Duration : 1h 28mn
      Bit rate mode : Constant
      Bit rate : 112 Kbps
      Channel(s) : 2 channels
      Channel positions : L R
      Sampling rate : 48.0 KHz
      Stream size : 71.0 MiB (10%)
      Alignment : Aligned on interleaves
      Interleave, duration : 42 ms (1.00 video frame)
      Interleave, preload duration : 512 ms
      Language : English

Source
 
       Region One DVD(NTSC) 720 x 480 29.970 fps 2.35:1
       Color AC3 Dolby Stereo 192 Kb/s  48.0 KHz

Encode Note

      All Distributor & Production Logo's Removed due to space
      constraints. Black borders removed due to bitrate
      constraints. Aspect 100% correct.      
      Film is 100% complete, no-frills just thrills.
      
      (If your player is having problems displaying the correct
      aspect/resolution then you need to step up to KMPlayer, the
      only player superior to VLC & Media Player Classic!)
      
      NO SUBS
      
-------- CURRENT TORRENT STATS ----------
 
http://torrent-stats.info/035d/44f9db7.png